<svg xmlns="http://www.w3.org/2000/svg" viewBox="0 0 512 512">
  <!-- Background -->
  <rect width="512" height="512" rx="64" fill="#234aac"/>

  <!-- Clipboard/Survey shape -->
  <rect x="120" y="100" width="272" height="340" rx="20" fill="#ffffff"/>

  <!-- Clipboard top -->
  <rect x="180" y="70" width="152" height="60" rx="10" fill="#ffffff"/>
  <rect x="200" y="85" width="112" height="30" rx="8" fill="#234aac"/>

  <!-- Checkmark lines (survey items) -->
  <!-- Item 1 - checked -->
  <circle cx="170" cy="190" r="18" fill="none" stroke="#234aac" stroke-width="6"/>
  <path d="M158 190 L168 200 L185 175" fill="none" stroke="#22c55e" stroke-width="6" stroke-linecap="round" stroke-linejoin="round"/>
  <rect x="210" y="178" width="140" height="24" rx="6" fill="#e5e7eb"/>

  <!-- Item 2 - checked -->
  <circle cx="170" cy="260" r="18" fill="none" stroke="#234aac" stroke-width="6"/>
  <path d="M158 260 L168 270 L185 245" fill="none" stroke="#22c55e" stroke-width="6" stroke-linecap="round" stroke-linejoin="round"/>
  <rect x="210" y="248" width="120" height="24" rx="6" fill="#e5e7eb"/>

  <!-- Item 3 - unchecked -->
  <circle cx="170" cy="330" r="18" fill="none" stroke="#234aac" stroke-width="6"/>
  <rect x="210" y="318" width="150" height="24" rx="6" fill="#e5e7eb"/>

  <!-- Star rating at bottom -->
  <g transform="translate(145, 380)">
    <polygon points="20,0 26,14 42,14 29,23 34,38 20,29 6,38 11,23 -2,14 14,14" fill="#fbbf24"/>
    <polygon points="65,0 71,14 87,14 74,23 79,38 65,29 51,38 56,23 43,14 59,14" fill="#fbbf24"/>
    <polygon points="110,0 116,14 132,14 119,23 124,38 110,29 96,38 101,23 88,14 104,14" fill="#fbbf24"/>
    <polygon points="155,0 161,14 177,14 164,23 169,38 155,29 141,38 146,23 133,14 149,14" fill="#fbbf24"/>
    <polygon points="200,0 206,14 222,14 209,23 214,38 200,29 186,38 191,23 178,14 194,14" fill="#d1d5db"/>
  </g>
</svg>
